<svg xmlns="http://www.w3.org/2000/svg" xmlns:xlink="http://www.w3.org/1999/xlink" style="position:relative" width="382.754" height="542.586" overflow="hidden" preserveAspectRatio="xMidYMid meet" version="1.1" viewBox="0 0 382.754 542.586"><desc style="-webkit-tap-highlight-color:transparent">Created with Raphaël 2.2.0</desc><defs style="-webkit-tap-highlight-color:transparent"><path style="-webkit-tap-highlight-color:transparent" id="raphael-marker-block" stroke-linecap="round" d="M5,0 0,2.5 5,5z"/><marker style="-webkit-tap-highlight-color:transparent" id="raphael-marker-endblock33-objvalf4" markerHeight="3" markerWidth="3" orient="auto" refX="1.5" refY="1.5"><use style="-webkit-tap-highlight-color:transparent" fill="#000" stroke="none" stroke-width="1.667" transform="rotate(180 1.5 1.5) scale(0.6,0.6)" xlink:href="#raphael-marker-block"/></marker><marker style="-webkit-tap-highlight-color:transparent" id="raphael-marker-endblock33-objloe8h" markerHeight="3" markerWidth="3" orient="auto" refX="1.5" refY="1.5"><use style="-webkit-tap-highlight-color:transparent" fill="#000" stroke="none" stroke-width="1.667" transform="rotate(180 1.5 1.5) scale(0.6,0.6)" xlink:href="#raphael-marker-block"/></marker><marker style="-webkit-tap-highlight-color:transparent" id="raphael-marker-endblock33-obj1iv2c" markerHeight="3" markerWidth="3" orient="auto" refX="1.5" refY="1.5"><use style="-webkit-tap-highlight-color:transparent" fill="#000" stroke="none" stroke-width="1.667" transform="rotate(180 1.5 1.5) scale(0.6,0.6)" xlink:href="#raphael-marker-block"/></marker><marker style="-webkit-tap-highlight-color:transparent" id="raphael-marker-endblock33-obj4dfbl" markerHeight="3" markerWidth="3" orient="auto" refX="1.5" refY="1.5"><use style="-webkit-tap-highlight-color:transparent" fill="#000" stroke="none" stroke-width="1.667" transform="rotate(180 1.5 1.5) scale(0.6,0.6)" xlink:href="#raphael-marker-block"/></marker><marker style="-webkit-tap-highlight-color:transparent" id="raphael-marker-endblock33-objwlk31" markerHeight="3" markerWidth="3" orient="auto" refX="1.5" refY="1.5"><use style="-webkit-tap-highlight-color:transparent" fill="#000" stroke="none" stroke-width="1.667" transform="rotate(180 1.5 1.5) scale(0.6,0.6)" xlink:href="#raphael-marker-block"/></marker><marker style="-webkit-tap-highlight-color:transparent" id="raphael-marker-endblock33-objpe1cf" markerHeight="3" markerWidth="3" orient="auto" refX="1.5" refY="1.5"><use style="-webkit-tap-highlight-color:transparent" fill="#000" stroke="none" stroke-width="1.667" transform="rotate(180 1.5 1.5) scale(0.6,0.6)" xlink:href="#raphael-marker-block"/></marker><marker style="-webkit-tap-highlight-color:transparent" id="raphael-marker-endblock33-objoal04" markerHeight="3" markerWidth="3" orient="auto" refX="1.5" refY="1.5"><use style="-webkit-tap-highlight-color:transparent" fill="#000" stroke="none" stroke-width="1.667" transform="rotate(180 1.5 1.5) scale(0.6,0.6)" xlink:href="#raphael-marker-block"/></marker><marker style="-webkit-tap-highlight-color:transparent" id="raphael-marker-endblock33-objyk7ra" markerHeight="3" markerWidth="3" orient="auto" refX="1.5" refY="1.5"><use style="-webkit-tap-highlight-color:transparent" fill="#000" stroke="none" stroke-width="1.667" transform="rotate(180 1.5 1.5) scale(0.6,0.6)" xlink:href="#raphael-marker-block"/></marker></defs><a style="-webkit-tap-highlight-color:transparent" xlink:href="http://www.google.com" xlink:show="new"><rect id="st" width="49.563" height="36" x="0" y="0" fill="#fff" stroke="#000" stroke-width="3" class="flowchart" rx="20" ry="20" transform="matrix(1,0,0,1,68.0234,27.5977)" style="-webkit-tap-highlight-color:transparent"/></a><a style="-webkit-tap-highlight-color:transparent" xlink:href="http://www.google.com" xlink:show="new"><text class="flowchartt" style="-webkit-tap-highlight-color:transparent" id="stt" x="10" y="18" fill="#000" stroke="none" stroke-width="1" font-family="Arial" font-size="14" text-anchor="start" transform="matrix(1,0,0,1,68.0234,27.5977)"><tspan style="-webkit-tap-highlight-color:transparent" dy="5">Start</tspan></text></a><rect id="op1" width="104.031" height="36" x="0" y="0" fill="#fff" stroke="#000" stroke-width="3" class="flowchart" rx="0" ry="0" transform="matrix(1,0,0,1,40.7891,141.1953)" style="-webkit-tap-highlight-color:transparent"/><text class="flowchartt" style="-webkit-tap-highlight-color:transparent" id="op1t" x="10" y="18" fill="#000" stroke="none" stroke-width="1" font-family="Arial" font-size="14" text-anchor="start" transform="matrix(1,0,0,1,40.7891,141.1953)"><tspan style="-webkit-tap-highlight-color:transparent" dy="5">My Operation</tspan></text><a style="-webkit-tap-highlight-color:transparent" xlink:href="http://www.google.com"><path style="-webkit-tap-highlight-color:transparent" id="cond" fill="#fff" stroke="#000" stroke-width="3" d="M27.005859375,19.798828125L0,39.59765625L54.01171875,79.1953125L108.0234375,39.59765625L54.01171875,0L0,39.59765625" class="flowchart" transform="matrix(1,0,0,1,38.793,233.1953)"/></a><a style="-webkit-tap-highlight-color:transparent" xlink:href="http://www.google.com"><text class="flowchartt" style="-webkit-tap-highlight-color:transparent" id="condt" x="32.006" y="39.598" fill="#000" stroke="none" stroke-width="1" font-family="Arial" font-size="14" text-anchor="start" transform="matrix(1,0,0,1,38.793,233.1953)"><tspan style="-webkit-tap-highlight-color:transparent" dy="-3.395">Yes</tspan><tspan style="-webkit-tap-highlight-color:transparent" x="32.006" dy="16.8">or No?</tspan></text></a><path style="-webkit-tap-highlight-color:transparent" id="io" fill="#fff" stroke="#000" stroke-width="3" d="M10,18L0,36L153.609375,36L173.609375,0L20,0L10,18" class="flowchart" transform="matrix(1,0,0,1,6,389.9883)"/><text class="flowchartt" style="-webkit-tap-highlight-color:transparent" id="iot" x="30" y="18" fill="#000" stroke="none" stroke-width="1" font-family="Arial" font-size="14" text-anchor="start" transform="matrix(1,0,0,1,6,389.9883)"><tspan style="-webkit-tap-highlight-color:transparent" dy="5">catch something...</tspan></text><a style="-webkit-tap-highlight-color:transparent" xlink:href="http://www.google.com"><rect id="e" width="44.906" height="36" x="0" y="0" fill="#fff" stroke="#000" stroke-width="3" class="flowchart" rx="20" ry="20" transform="matrix(1,0,0,1,70.3516,503.5859)" style="-webkit-tap-highlight-color:transparent"/></a><a style="-webkit-tap-highlight-color:transparent" xlink:href="http://www.google.com"><text class="flowchartt" style="-webkit-tap-highlight-color:transparent" id="et" x="10" y="18" fill="#000" stroke="none" stroke-width="1" font-family="Arial" font-size="14" text-anchor="start" transform="matrix(1,0,0,1,70.3516,503.5859)"><tspan style="-webkit-tap-highlight-color:transparent" dy="5">End</tspan></text></a><rect id="para" width="101.703" height="36" x="0" y="0" fill="#fff" stroke="#000" stroke-width="3" class="flowchart" rx="0" ry="0" transform="matrix(1,0,0,1,238.7695,254.793)" style="-webkit-tap-highlight-color:transparent"/><text class="flowchartt" style="-webkit-tap-highlight-color:transparent" id="parat" x="10" y="18" fill="#000" stroke="none" stroke-width="1" font-family="Arial" font-size="14" text-anchor="start" transform="matrix(1,0,0,1,238.7695,254.793)"><tspan style="-webkit-tap-highlight-color:transparent" dy="5">parallel tasks</tspan></text><rect id="sub1" width="130.266" height="36" x="0" y="0" fill="#fff" stroke="#000" stroke-width="3" class="flowchart" rx="0" ry="0" transform="matrix(1,0,0,1,224.4883,368.3906)" style="-webkit-tap-highlight-color:transparent"/><rect id="sub1i" width="110.266" height="36" x="10" y="0" fill="#fff" stroke="#000" stroke-width="3" rx="0" ry="0" transform="matrix(1,0,0,1,224.4883,368.3906)" style="-webkit-tap-highlight-color:transparent"/><text class="flowchartt" style="-webkit-tap-highlight-color:transparent" id="sub1t" x="20" y="18" fill="#000" stroke="none" stroke-width="1" font-family="Arial" font-size="14" text-anchor="start" transform="matrix(1,0,0,1,224.4883,368.3906)"><tspan style="-webkit-tap-highlight-color:transparent" dy="5">My Subroutine</tspan></text><path style="-webkit-tap-highlight-color:transparent" fill="none" stroke="#000" stroke-width="3" marker-end="url(#raphael-marker-endblock33-objvalf4)" d="M92.8046875,63.59765625C92.8046875,63.59765625,92.8046875,120.1266892105341,92.8046875,136.68792933569057"/><path style="-webkit-tap-highlight-color:transparent" fill="none" stroke="#000" stroke-width="3" marker-end="url(#raphael-marker-endblock33-objloe8h)" d="M92.8046875,177.1953125C92.8046875,177.1953125,92.8046875,215.39608335494995,92.8046875,228.69547281763516"/><path style="-webkit-tap-highlight-color:transparent" fill="none" stroke="#000" stroke-width="3" marker-end="url(#raphael-marker-endblock33-obj1iv2c)" d="M92.8046875,312.390625C92.8046875,312.390625,92.8046875,368.9196579605341,92.8046875,385.48089808569057"/><text style="-webkit-tap-highlight-color:transparent" x="97.805" y="322.391" fill="#000" stroke="none" stroke-width="1" font-family="Arial" font-size="14" text-anchor="start"><tspan style="-webkit-tap-highlight-color:transparent" dy="5">yes</tspan></text><path style="-webkit-tap-highlight-color:transparent" fill="none" stroke="#000" stroke-width="3" marker-end="url(#raphael-marker-endblock33-obj4dfbl)" d="M146.81640625,272.79296875C146.81640625,272.79296875,215.8108026534319,272.79296875,234.27219387856894,272.79296875"/><text style="-webkit-tap-highlight-color:transparent" x="151.816" y="262.793" fill="#000" stroke="none" stroke-width="1" font-family="Arial" font-size="14" text-anchor="start"><tspan style="-webkit-tap-highlight-color:transparent" dy="5.012">no</tspan></text><path style="-webkit-tap-highlight-color:transparent" fill="none" stroke="#000" stroke-width="3" marker-end="url(#raphael-marker-endblock33-objwlk31)" d="M92.8046875,425.98828125C92.8046875,425.98828125,92.8046875,482.5173142105341,92.8046875,499.07855433569057"/><path style="-webkit-tap-highlight-color:transparent" fill="none" stroke="#000" stroke-width="3" marker-end="url(#raphael-marker-endblock33-objpe1cf)" d="M289.62109375,290.79296875C289.62109375,290.79296875,289.62109375,347.3220017105341,289.62109375,363.88324183569057"/><path style="-webkit-tap-highlight-color:transparent" fill="none" stroke="#000" stroke-width="3" marker-end="url(#raphael-marker-endblock33-objoal04)" d="M289.62109375,254.79296875C289.62109375,254.79296875,289.62109375,116.1953125,289.62109375,116.1953125C289.62109375,116.1953125,92.8046875,116.1953125,92.8046875,116.1953125C92.8046875,116.1953125,92.8046875,129.49928379058838,92.8046875,136.6969401333481"/><path style="-webkit-tap-highlight-color:transparent" fill="none" stroke="#000" stroke-width="3" marker-end="url(#raphael-marker-endblock33-objyk7ra)" d="M354.75390625,386.390625C354.75390625,386.390625,379.75390625,386.390625,379.75390625,386.390625C379.75390625,386.390625,379.75390625,116.1953125,379.75390625,116.1953125C379.75390625,116.1953125,92.8046875,116.1953125,92.8046875,116.1953125C92.8046875,116.1953125,92.8046875,129.49928379058838,92.8046875,136.6969401333481"/></svg>